<mxfile host="app.diagrams.net" modified="2022-10-24T04:38:45.150Z" agent="5.0 (Windows NT 10.0; Win64; x64) AppleWebKit/537.36 (KHTML, like Gecko) Chrome/106.0.0.0 Safari/537.36" etag="wt-piGf7co5fQTmic_eZ" version="20.5.1" type="github">
  <diagram id="C5RBs43oDa-KdzZeNtuy" name="Page-1">
    <mxGraphModel dx="1604" dy="740" grid="1" gridSize="10" guides="1" tooltips="1" connect="1" arrows="1" fold="1" page="1" pageScale="1" pageWidth="827" pageHeight="1169" math="0" shadow="0">
      <root>
        <mxCell id="WIyWlLk6GJQsqaUBKTNV-0" />
        <mxCell id="WIyWlLk6GJQsqaUBKTNV-1" parent="WIyWlLk6GJQsqaUBKTNV-0" />
        <mxCell id="USOsOcjbHyalh4QCgonA-1" style="edgeStyle=orthogonalEdgeStyle;rounded=0;orthogonalLoop=1;jettySize=auto;html=1;entryX=0.5;entryY=0;entryDx=0;entryDy=0;" edge="1" parent="WIyWlLk6GJQsqaUBKTNV-1" target="USOsOcjbHyalh4QCgonA-7">
          <mxGeometry relative="1" as="geometry">
            <mxPoint x="400" y="170" as="targetPoint" />
            <mxPoint x="400" y="120" as="sourcePoint" />
          </mxGeometry>
        </mxCell>
        <mxCell id="USOsOcjbHyalh4QCgonA-3" style="edgeStyle=orthogonalEdgeStyle;rounded=0;orthogonalLoop=1;jettySize=auto;html=1;" edge="1" parent="WIyWlLk6GJQsqaUBKTNV-1">
          <mxGeometry relative="1" as="geometry">
            <mxPoint x="400" y="310" as="targetPoint" />
            <mxPoint x="400" y="260" as="sourcePoint" />
          </mxGeometry>
        </mxCell>
        <mxCell id="USOsOcjbHyalh4QCgonA-5" style="edgeStyle=orthogonalEdgeStyle;rounded=0;orthogonalLoop=1;jettySize=auto;html=1;" edge="1" parent="WIyWlLk6GJQsqaUBKTNV-1" source="USOsOcjbHyalh4QCgonA-4">
          <mxGeometry relative="1" as="geometry">
            <mxPoint x="400" y="440" as="targetPoint" />
          </mxGeometry>
        </mxCell>
        <mxCell id="USOsOcjbHyalh4QCgonA-4" value="&lt;span style=&quot;font-size: 12pt; line-height: 107%; font-family: &amp;quot;Times New Roman&amp;quot;, serif;&quot;&gt;PRINT“Enter the total sales per month earned by a car salesperson: ”&lt;/span&gt;" style="shape=parallelogram;perimeter=parallelogramPerimeter;whiteSpace=wrap;html=1;fixedSize=1;" vertex="1" parent="WIyWlLk6GJQsqaUBKTNV-1">
          <mxGeometry x="255" y="310" width="290" height="60" as="geometry" />
        </mxCell>
        <mxCell id="USOsOcjbHyalh4QCgonA-9" style="edgeStyle=orthogonalEdgeStyle;rounded=0;orthogonalLoop=1;jettySize=auto;html=1;" edge="1" parent="WIyWlLk6GJQsqaUBKTNV-1" source="USOsOcjbHyalh4QCgonA-6">
          <mxGeometry relative="1" as="geometry">
            <mxPoint x="400" y="560" as="targetPoint" />
          </mxGeometry>
        </mxCell>
        <mxCell id="USOsOcjbHyalh4QCgonA-6" value="&lt;span style=&quot;font-size: 12pt; line-height: 107%; font-family: &amp;quot;Times New Roman&amp;quot;, serif;&quot;&gt;READ total_sales&lt;/span&gt;" style="shape=parallelogram;perimeter=parallelogramPerimeter;whiteSpace=wrap;html=1;fixedSize=1;" vertex="1" parent="WIyWlLk6GJQsqaUBKTNV-1">
          <mxGeometry x="310" y="440" width="180" height="60" as="geometry" />
        </mxCell>
        <mxCell id="USOsOcjbHyalh4QCgonA-7" value="&lt;span style=&quot;font-family: &amp;quot;Times New Roman&amp;quot;, serif; font-size: 16px;&quot;&gt;DECLARE total_sales, class as INTEGER&lt;/span&gt;" style="shape=hexagon;perimeter=hexagonPerimeter2;whiteSpace=wrap;html=1;fixedSize=1;" vertex="1" parent="WIyWlLk6GJQsqaUBKTNV-1">
          <mxGeometry x="290" y="180" width="220" height="80" as="geometry" />
        </mxCell>
        <mxCell id="USOsOcjbHyalh4QCgonA-11" style="edgeStyle=orthogonalEdgeStyle;rounded=0;orthogonalLoop=1;jettySize=auto;html=1;" edge="1" parent="WIyWlLk6GJQsqaUBKTNV-1" source="USOsOcjbHyalh4QCgonA-10">
          <mxGeometry relative="1" as="geometry">
            <mxPoint x="400" y="680" as="targetPoint" />
          </mxGeometry>
        </mxCell>
        <mxCell id="USOsOcjbHyalh4QCgonA-10" value="&lt;p style=&quot;line-height:normal&quot; class=&quot;MsoNormal&quot;&gt;&lt;span style=&quot;font-size: 12pt; font-family: &amp;quot;Times New Roman&amp;quot;, serif;&quot;&gt;PRINT“Enter your class code: ”&lt;/span&gt;&lt;span&gt;&lt;/span&gt;&lt;/p&gt;" style="shape=parallelogram;perimeter=parallelogramPerimeter;whiteSpace=wrap;html=1;fixedSize=1;" vertex="1" parent="WIyWlLk6GJQsqaUBKTNV-1">
          <mxGeometry x="305" y="560" width="190" height="60" as="geometry" />
        </mxCell>
        <mxCell id="USOsOcjbHyalh4QCgonA-13" style="edgeStyle=orthogonalEdgeStyle;rounded=0;orthogonalLoop=1;jettySize=auto;html=1;" edge="1" parent="WIyWlLk6GJQsqaUBKTNV-1" source="USOsOcjbHyalh4QCgonA-12">
          <mxGeometry relative="1" as="geometry">
            <mxPoint x="400" y="800" as="targetPoint" />
          </mxGeometry>
        </mxCell>
        <mxCell id="USOsOcjbHyalh4QCgonA-12" value="&lt;span style=&quot;font-size: 12pt; line-height: 107%; font-family: &amp;quot;Times New Roman&amp;quot;, serif;&quot;&gt;READ class&lt;/span&gt;" style="shape=parallelogram;perimeter=parallelogramPerimeter;whiteSpace=wrap;html=1;fixedSize=1;" vertex="1" parent="WIyWlLk6GJQsqaUBKTNV-1">
          <mxGeometry x="340" y="680" width="120" height="60" as="geometry" />
        </mxCell>
        <mxCell id="USOsOcjbHyalh4QCgonA-21" style="edgeStyle=elbowEdgeStyle;rounded=0;orthogonalLoop=1;jettySize=auto;html=1;entryX=0.5;entryY=0;entryDx=0;entryDy=0;exitX=0;exitY=0.5;exitDx=0;exitDy=0;" edge="1" parent="WIyWlLk6GJQsqaUBKTNV-1" source="USOsOcjbHyalh4QCgonA-14" target="USOsOcjbHyalh4QCgonA-16">
          <mxGeometry relative="1" as="geometry">
            <Array as="points">
              <mxPoint x="50" y="850" />
              <mxPoint x="80" y="860" />
              <mxPoint x="150" y="830" />
              <mxPoint x="200" y="840" />
              <mxPoint x="250" y="860" />
            </Array>
          </mxGeometry>
        </mxCell>
        <mxCell id="USOsOcjbHyalh4QCgonA-42" style="edgeStyle=elbowEdgeStyle;rounded=0;orthogonalLoop=1;jettySize=auto;html=1;entryX=0.5;entryY=0;entryDx=0;entryDy=0;" edge="1" parent="WIyWlLk6GJQsqaUBKTNV-1" source="USOsOcjbHyalh4QCgonA-14" target="USOsOcjbHyalh4QCgonA-23">
          <mxGeometry relative="1" as="geometry" />
        </mxCell>
        <mxCell id="USOsOcjbHyalh4QCgonA-61" style="edgeStyle=elbowEdgeStyle;rounded=0;orthogonalLoop=1;jettySize=auto;html=1;entryX=0.5;entryY=0;entryDx=0;entryDy=0;" edge="1" parent="WIyWlLk6GJQsqaUBKTNV-1" source="USOsOcjbHyalh4QCgonA-14" target="USOsOcjbHyalh4QCgonA-24">
          <mxGeometry relative="1" as="geometry">
            <Array as="points">
              <mxPoint x="610" y="840" />
            </Array>
          </mxGeometry>
        </mxCell>
        <mxCell id="USOsOcjbHyalh4QCgonA-62" style="edgeStyle=elbowEdgeStyle;rounded=0;orthogonalLoop=1;jettySize=auto;html=1;entryX=0.5;entryY=0;entryDx=0;entryDy=0;" edge="1" parent="WIyWlLk6GJQsqaUBKTNV-1" source="USOsOcjbHyalh4QCgonA-14" target="USOsOcjbHyalh4QCgonA-25">
          <mxGeometry relative="1" as="geometry">
            <Array as="points">
              <mxPoint x="830" y="840" />
            </Array>
          </mxGeometry>
        </mxCell>
        <mxCell id="USOsOcjbHyalh4QCgonA-63" style="edgeStyle=elbowEdgeStyle;rounded=0;orthogonalLoop=1;jettySize=auto;html=1;exitX=1;exitY=0.5;exitDx=0;exitDy=0;entryX=0.5;entryY=0;entryDx=0;entryDy=0;" edge="1" parent="WIyWlLk6GJQsqaUBKTNV-1" source="USOsOcjbHyalh4QCgonA-14" target="USOsOcjbHyalh4QCgonA-26">
          <mxGeometry relative="1" as="geometry">
            <Array as="points">
              <mxPoint x="990" y="830" />
            </Array>
          </mxGeometry>
        </mxCell>
        <mxCell id="USOsOcjbHyalh4QCgonA-14" value="DOCASE class" style="rhombus;whiteSpace=wrap;html=1;" vertex="1" parent="WIyWlLk6GJQsqaUBKTNV-1">
          <mxGeometry x="335" y="800" width="130" height="80" as="geometry" />
        </mxCell>
        <mxCell id="USOsOcjbHyalh4QCgonA-39" style="edgeStyle=elbowEdgeStyle;rounded=0;orthogonalLoop=1;jettySize=auto;html=1;entryX=0.5;entryY=0;entryDx=0;entryDy=0;" edge="1" parent="WIyWlLk6GJQsqaUBKTNV-1" source="USOsOcjbHyalh4QCgonA-16" target="USOsOcjbHyalh4QCgonA-22">
          <mxGeometry relative="1" as="geometry" />
        </mxCell>
        <mxCell id="USOsOcjbHyalh4QCgonA-72" style="edgeStyle=elbowEdgeStyle;rounded=0;orthogonalLoop=1;jettySize=auto;html=1;entryX=0;entryY=0.5;entryDx=0;entryDy=0;" edge="1" parent="WIyWlLk6GJQsqaUBKTNV-1" source="USOsOcjbHyalh4QCgonA-16" target="USOsOcjbHyalh4QCgonA-23">
          <mxGeometry relative="1" as="geometry" />
        </mxCell>
        <mxCell id="USOsOcjbHyalh4QCgonA-16" value="&lt;span style=&quot;font-size: 12pt; line-height: 107%; font-family: &amp;quot;Times New Roman&amp;quot;, serif;&quot;&gt;Case 1&lt;/span&gt;" style="rhombus;whiteSpace=wrap;html=1;" vertex="1" parent="WIyWlLk6GJQsqaUBKTNV-1">
          <mxGeometry x="10" y="900" width="80" height="80" as="geometry" />
        </mxCell>
        <mxCell id="USOsOcjbHyalh4QCgonA-40" style="edgeStyle=elbowEdgeStyle;rounded=0;orthogonalLoop=1;jettySize=auto;html=1;exitX=0;exitY=0.5;exitDx=0;exitDy=0;entryX=0.5;entryY=0;entryDx=0;entryDy=0;" edge="1" parent="WIyWlLk6GJQsqaUBKTNV-1" source="USOsOcjbHyalh4QCgonA-22" target="USOsOcjbHyalh4QCgonA-27">
          <mxGeometry relative="1" as="geometry">
            <Array as="points">
              <mxPoint x="-90" y="1080" />
            </Array>
          </mxGeometry>
        </mxCell>
        <mxCell id="USOsOcjbHyalh4QCgonA-41" style="edgeStyle=elbowEdgeStyle;rounded=0;orthogonalLoop=1;jettySize=auto;html=1;exitX=1;exitY=0.5;exitDx=0;exitDy=0;entryX=0.5;entryY=0;entryDx=0;entryDy=0;" edge="1" parent="WIyWlLk6GJQsqaUBKTNV-1" source="USOsOcjbHyalh4QCgonA-22" target="USOsOcjbHyalh4QCgonA-28">
          <mxGeometry relative="1" as="geometry">
            <Array as="points">
              <mxPoint x="190" y="1080" />
            </Array>
          </mxGeometry>
        </mxCell>
        <mxCell id="USOsOcjbHyalh4QCgonA-22" value="&lt;span style=&quot;font-size: 12pt; line-height: 107%; font-family: &amp;quot;Times New Roman&amp;quot;, serif;&quot;&gt;IF total_sales &amp;gt; 400000&lt;/span&gt;" style="rhombus;whiteSpace=wrap;html=1;" vertex="1" parent="WIyWlLk6GJQsqaUBKTNV-1">
          <mxGeometry x="-60" y="1010" width="220" height="80" as="geometry" />
        </mxCell>
        <mxCell id="USOsOcjbHyalh4QCgonA-43" style="edgeStyle=elbowEdgeStyle;rounded=0;orthogonalLoop=1;jettySize=auto;html=1;exitX=0.5;exitY=1;exitDx=0;exitDy=0;entryX=0.5;entryY=0;entryDx=0;entryDy=0;" edge="1" parent="WIyWlLk6GJQsqaUBKTNV-1" source="USOsOcjbHyalh4QCgonA-23" target="USOsOcjbHyalh4QCgonA-29">
          <mxGeometry relative="1" as="geometry" />
        </mxCell>
        <mxCell id="USOsOcjbHyalh4QCgonA-53" style="edgeStyle=elbowEdgeStyle;rounded=0;orthogonalLoop=1;jettySize=auto;html=1;entryX=0;entryY=0.5;entryDx=0;entryDy=0;" edge="1" parent="WIyWlLk6GJQsqaUBKTNV-1" source="USOsOcjbHyalh4QCgonA-23" target="USOsOcjbHyalh4QCgonA-24">
          <mxGeometry relative="1" as="geometry" />
        </mxCell>
        <mxCell id="USOsOcjbHyalh4QCgonA-23" value="Case 2" style="rhombus;whiteSpace=wrap;html=1;" vertex="1" parent="WIyWlLk6GJQsqaUBKTNV-1">
          <mxGeometry x="360" y="900" width="80" height="80" as="geometry" />
        </mxCell>
        <mxCell id="USOsOcjbHyalh4QCgonA-44" style="edgeStyle=elbowEdgeStyle;rounded=0;orthogonalLoop=1;jettySize=auto;html=1;entryX=0.5;entryY=0;entryDx=0;entryDy=0;" edge="1" parent="WIyWlLk6GJQsqaUBKTNV-1" source="USOsOcjbHyalh4QCgonA-24" target="USOsOcjbHyalh4QCgonA-30">
          <mxGeometry relative="1" as="geometry" />
        </mxCell>
        <mxCell id="USOsOcjbHyalh4QCgonA-54" style="edgeStyle=elbowEdgeStyle;rounded=0;orthogonalLoop=1;jettySize=auto;html=1;entryX=0;entryY=0.5;entryDx=0;entryDy=0;" edge="1" parent="WIyWlLk6GJQsqaUBKTNV-1" source="USOsOcjbHyalh4QCgonA-24" target="USOsOcjbHyalh4QCgonA-25">
          <mxGeometry relative="1" as="geometry" />
        </mxCell>
        <mxCell id="USOsOcjbHyalh4QCgonA-24" value="Case 3" style="rhombus;whiteSpace=wrap;html=1;" vertex="1" parent="WIyWlLk6GJQsqaUBKTNV-1">
          <mxGeometry x="570" y="900" width="80" height="80" as="geometry" />
        </mxCell>
        <mxCell id="USOsOcjbHyalh4QCgonA-45" style="edgeStyle=elbowEdgeStyle;rounded=0;orthogonalLoop=1;jettySize=auto;html=1;entryX=0.425;entryY=0.017;entryDx=0;entryDy=0;entryPerimeter=0;" edge="1" parent="WIyWlLk6GJQsqaUBKTNV-1" source="USOsOcjbHyalh4QCgonA-25" target="USOsOcjbHyalh4QCgonA-31">
          <mxGeometry relative="1" as="geometry" />
        </mxCell>
        <mxCell id="USOsOcjbHyalh4QCgonA-55" style="edgeStyle=elbowEdgeStyle;rounded=0;orthogonalLoop=1;jettySize=auto;html=1;entryX=0;entryY=0.5;entryDx=0;entryDy=0;" edge="1" parent="WIyWlLk6GJQsqaUBKTNV-1" source="USOsOcjbHyalh4QCgonA-25" target="USOsOcjbHyalh4QCgonA-26">
          <mxGeometry relative="1" as="geometry" />
        </mxCell>
        <mxCell id="USOsOcjbHyalh4QCgonA-25" value="Case 4" style="rhombus;whiteSpace=wrap;html=1;" vertex="1" parent="WIyWlLk6GJQsqaUBKTNV-1">
          <mxGeometry x="790" y="900" width="80" height="80" as="geometry" />
        </mxCell>
        <mxCell id="USOsOcjbHyalh4QCgonA-46" style="edgeStyle=elbowEdgeStyle;rounded=0;orthogonalLoop=1;jettySize=auto;html=1;exitX=1;exitY=0.5;exitDx=0;exitDy=0;entryX=0;entryY=0.5;entryDx=0;entryDy=0;" edge="1" parent="WIyWlLk6GJQsqaUBKTNV-1" source="USOsOcjbHyalh4QCgonA-26" target="USOsOcjbHyalh4QCgonA-32">
          <mxGeometry relative="1" as="geometry" />
        </mxCell>
        <mxCell id="USOsOcjbHyalh4QCgonA-26" value="Case OTHER" style="rhombus;whiteSpace=wrap;html=1;" vertex="1" parent="WIyWlLk6GJQsqaUBKTNV-1">
          <mxGeometry x="940" y="900" width="100" height="80" as="geometry" />
        </mxCell>
        <mxCell id="USOsOcjbHyalh4QCgonA-66" style="edgeStyle=elbowEdgeStyle;rounded=0;orthogonalLoop=1;jettySize=auto;html=1;entryX=0;entryY=0.5;entryDx=0;entryDy=0;" edge="1" parent="WIyWlLk6GJQsqaUBKTNV-1" source="USOsOcjbHyalh4QCgonA-27" target="USOsOcjbHyalh4QCgonA-35">
          <mxGeometry relative="1" as="geometry">
            <Array as="points">
              <mxPoint x="-90" y="1240" />
            </Array>
          </mxGeometry>
        </mxCell>
        <mxCell id="USOsOcjbHyalh4QCgonA-27" value="&lt;span style=&quot;font-size: 12pt; line-height: 107%; font-family: &amp;quot;Times New Roman&amp;quot;, serif;&quot;&gt;com = total_sales * 0.20&lt;/span&gt;" style="rounded=0;whiteSpace=wrap;html=1;" vertex="1" parent="WIyWlLk6GJQsqaUBKTNV-1">
          <mxGeometry x="-170" y="1130" width="160" height="60" as="geometry" />
        </mxCell>
        <mxCell id="USOsOcjbHyalh4QCgonA-67" style="edgeStyle=elbowEdgeStyle;rounded=0;orthogonalLoop=1;jettySize=auto;html=1;" edge="1" parent="WIyWlLk6GJQsqaUBKTNV-1" source="USOsOcjbHyalh4QCgonA-28">
          <mxGeometry relative="1" as="geometry">
            <mxPoint x="190" y="1390" as="targetPoint" />
          </mxGeometry>
        </mxCell>
        <mxCell id="USOsOcjbHyalh4QCgonA-28" value="&lt;span style=&quot;font-size: 12pt; line-height: 107%; font-family: &amp;quot;Times New Roman&amp;quot;, serif;&quot;&gt;com = total_sales * 0.15&lt;/span&gt;" style="rounded=0;whiteSpace=wrap;html=1;fontStyle=0" vertex="1" parent="WIyWlLk6GJQsqaUBKTNV-1">
          <mxGeometry x="110" y="1120" width="160" height="60" as="geometry" />
        </mxCell>
        <mxCell id="USOsOcjbHyalh4QCgonA-68" style="edgeStyle=elbowEdgeStyle;rounded=0;orthogonalLoop=1;jettySize=auto;html=1;strokeColor=default;strokeWidth=1;" edge="1" parent="WIyWlLk6GJQsqaUBKTNV-1" source="USOsOcjbHyalh4QCgonA-29">
          <mxGeometry relative="1" as="geometry">
            <mxPoint x="360" y="1390" as="targetPoint" />
          </mxGeometry>
        </mxCell>
        <mxCell id="USOsOcjbHyalh4QCgonA-29" value="&lt;span style=&quot;font-size: 12pt; line-height: 107%; font-family: &amp;quot;Times New Roman&amp;quot;, serif;&quot;&gt;com = total_sales * 0.15&lt;/span&gt;" style="rounded=0;whiteSpace=wrap;html=1;" vertex="1" parent="WIyWlLk6GJQsqaUBKTNV-1">
          <mxGeometry x="317.5" y="1120" width="165" height="60" as="geometry" />
        </mxCell>
        <mxCell id="USOsOcjbHyalh4QCgonA-70" style="edgeStyle=elbowEdgeStyle;rounded=0;orthogonalLoop=1;jettySize=auto;html=1;" edge="1" parent="WIyWlLk6GJQsqaUBKTNV-1" source="USOsOcjbHyalh4QCgonA-30">
          <mxGeometry relative="1" as="geometry">
            <mxPoint x="620" y="1390" as="targetPoint" />
            <Array as="points">
              <mxPoint x="620" y="1390" />
            </Array>
          </mxGeometry>
        </mxCell>
        <mxCell id="USOsOcjbHyalh4QCgonA-30" value="&lt;span style=&quot;font-size: 12pt; line-height: 107%; font-family: &amp;quot;Times New Roman&amp;quot;, serif;&quot;&gt;com = total_sales *0.10&lt;/span&gt;" style="rounded=0;whiteSpace=wrap;html=1;" vertex="1" parent="WIyWlLk6GJQsqaUBKTNV-1">
          <mxGeometry x="530" y="1120" width="160" height="60" as="geometry" />
        </mxCell>
        <mxCell id="USOsOcjbHyalh4QCgonA-69" style="edgeStyle=elbowEdgeStyle;rounded=0;orthogonalLoop=1;jettySize=auto;html=1;exitX=0.5;exitY=1;exitDx=0;exitDy=0;entryX=1;entryY=0.5;entryDx=0;entryDy=0;" edge="1" parent="WIyWlLk6GJQsqaUBKTNV-1" source="USOsOcjbHyalh4QCgonA-31" target="USOsOcjbHyalh4QCgonA-35">
          <mxGeometry relative="1" as="geometry">
            <Array as="points">
              <mxPoint x="840" y="1290" />
            </Array>
          </mxGeometry>
        </mxCell>
        <mxCell id="USOsOcjbHyalh4QCgonA-31" value="&lt;span style=&quot;font-size: 12pt; line-height: 107%; font-family: &amp;quot;Times New Roman&amp;quot;, serif;&quot;&gt;com = total_sales * 0.05&lt;/span&gt;" style="rounded=0;whiteSpace=wrap;html=1;" vertex="1" parent="WIyWlLk6GJQsqaUBKTNV-1">
          <mxGeometry x="760" y="1120" width="160" height="60" as="geometry" />
        </mxCell>
        <mxCell id="USOsOcjbHyalh4QCgonA-64" style="edgeStyle=elbowEdgeStyle;rounded=0;orthogonalLoop=1;jettySize=auto;html=1;entryX=1;entryY=0.5;entryDx=0;entryDy=0;" edge="1" parent="WIyWlLk6GJQsqaUBKTNV-1" source="USOsOcjbHyalh4QCgonA-32">
          <mxGeometry relative="1" as="geometry">
            <mxPoint x="502.5" y="1850" as="targetPoint" />
            <Array as="points">
              <mxPoint x="1220" y="1030" />
              <mxPoint x="1190" y="1090" />
            </Array>
          </mxGeometry>
        </mxCell>
        <mxCell id="USOsOcjbHyalh4QCgonA-32" value="&lt;span style=&quot;font-size: 12pt; line-height: 107%; font-family: &amp;quot;Times New Roman&amp;quot;, serif;&quot;&gt;PRINT “INVALID CLASS CODE”&lt;/span&gt;" style="rounded=0;whiteSpace=wrap;html=1;" vertex="1" parent="WIyWlLk6GJQsqaUBKTNV-1">
          <mxGeometry x="1090" y="910" width="250" height="60" as="geometry" />
        </mxCell>
        <mxCell id="USOsOcjbHyalh4QCgonA-71" style="edgeStyle=elbowEdgeStyle;rounded=0;orthogonalLoop=1;jettySize=auto;html=1;entryX=0.513;entryY=-0.067;entryDx=0;entryDy=0;entryPerimeter=0;" edge="1" parent="WIyWlLk6GJQsqaUBKTNV-1" source="USOsOcjbHyalh4QCgonA-35" target="USOsOcjbHyalh4QCgonA-36">
          <mxGeometry relative="1" as="geometry" />
        </mxCell>
        <mxCell id="USOsOcjbHyalh4QCgonA-35" value="" style="ellipse;whiteSpace=wrap;html=1;aspect=fixed;" vertex="1" parent="WIyWlLk6GJQsqaUBKTNV-1">
          <mxGeometry x="402.5" y="1350" width="80" height="80" as="geometry" />
        </mxCell>
        <mxCell id="USOsOcjbHyalh4QCgonA-56" style="edgeStyle=elbowEdgeStyle;rounded=0;orthogonalLoop=1;jettySize=auto;html=1;entryX=0.5;entryY=0;entryDx=0;entryDy=0;" edge="1" parent="WIyWlLk6GJQsqaUBKTNV-1" source="USOsOcjbHyalh4QCgonA-36" target="USOsOcjbHyalh4QCgonA-37">
          <mxGeometry relative="1" as="geometry" />
        </mxCell>
        <mxCell id="USOsOcjbHyalh4QCgonA-36" value="&lt;p style=&quot;line-height:normal&quot; class=&quot;MsoNormal&quot;&gt;&lt;/p&gt;&lt;p style=&quot;line-height:normal&quot; class=&quot;MsoNormal&quot;&gt;&lt;span style=&quot;font-size: 12pt; font-family: &amp;quot;Times New Roman&amp;quot;, serif;&quot;&gt;PRINT “Total amount in commissions: $”, com, “Total&amp;nbsp;&lt;/span&gt;&lt;span style=&quot;font-family: &amp;quot;Times New Roman&amp;quot;, serif; font-size: 12pt; text-indent: 0.5in; background-color: initial;&quot;&gt;amount&amp;nbsp;in sales: $”, total_sales&lt;/span&gt;&lt;/p&gt;" style="shape=parallelogram;perimeter=parallelogramPerimeter;whiteSpace=wrap;html=1;fixedSize=1;" vertex="1" parent="WIyWlLk6GJQsqaUBKTNV-1">
          <mxGeometry x="120" y="1530" width="620" height="60" as="geometry" />
        </mxCell>
        <mxCell id="USOsOcjbHyalh4QCgonA-57" style="edgeStyle=elbowEdgeStyle;rounded=0;orthogonalLoop=1;jettySize=auto;html=1;entryX=0.5;entryY=0;entryDx=0;entryDy=0;" edge="1" parent="WIyWlLk6GJQsqaUBKTNV-1" source="USOsOcjbHyalh4QCgonA-37">
          <mxGeometry relative="1" as="geometry">
            <mxPoint x="442.5" y="1810" as="targetPoint" />
          </mxGeometry>
        </mxCell>
        <mxCell id="USOsOcjbHyalh4QCgonA-37" value="&lt;span style=&quot;font-size:12.0pt;line-height:107%;&lt;br/&gt;font-family:&amp;quot;Times New Roman&amp;quot;,serif;mso-fareast-font-family:&amp;quot;Times New Roman&amp;quot;;&lt;br/&gt;mso-ansi-language:EN-US;mso-fareast-language:EN-US;mso-bidi-language:AR-SA&quot;&gt;PRINT&lt;br/&gt;“Your total salary for the month is $”, 70000 + com&lt;/span&gt;" style="shape=parallelogram;perimeter=parallelogramPerimeter;whiteSpace=wrap;html=1;fixedSize=1;" vertex="1" parent="WIyWlLk6GJQsqaUBKTNV-1">
          <mxGeometry x="167.5" y="1680" width="550" height="60" as="geometry" />
        </mxCell>
        <mxCell id="USOsOcjbHyalh4QCgonA-75" value="START" style="strokeWidth=2;html=1;shape=mxgraph.flowchart.terminator;whiteSpace=wrap;" vertex="1" parent="WIyWlLk6GJQsqaUBKTNV-1">
          <mxGeometry x="350" y="60" width="100" height="60" as="geometry" />
        </mxCell>
        <mxCell id="USOsOcjbHyalh4QCgonA-76" value="STOP" style="strokeWidth=2;html=1;shape=mxgraph.flowchart.terminator;whiteSpace=wrap;" vertex="1" parent="WIyWlLk6GJQsqaUBKTNV-1">
          <mxGeometry x="395" y="1810" width="100" height="60" as="geometry" />
        </mxCell>
      </root>
    </mxGraphModel>
  </diagram>
</mxfile>
